# xmcd
#
# Track frame offsets:
#	150
#	16195
#	33647
#	45917
#	64005
#	83237
#	102287
#	117817
#	138212
#	151795
#	168910
#	184957
#	202410
#	214680
#	232767
#	251997
#	271050
#	286580
#	306975
#	320557
#
# Disc length: 4502 seconds
#
# Revision: 1
# Processed by: cddbd v1.5.1PL2 Copyright (c) Steve Scherf et al.
# Submitted via: audiograbber 1.83.01
#
DISCID=0f119414
DTITLE=Top Hits Monthly Country - Thmc0101
DYEAR=2001
DGENRE=Karaoke
TTITLE0=Tim Mcgraw (Vocal) - My Next 30 Years
TTITLE1=Billy Ray Cyrus (Vocal) - You Won't Be Lonely Now
TTITLE2=Alan Jackson (Vocal) - Wwwmemory
TTITLE3=Lee Ann Womack (Vocal) - Ashes By Now
TTITLE4=Jo Dee Messina (Vocal) - Burn
TTITLE5=Billy Gilman (Vocal) - Oklahoma
TTITLE6=Chad Brock (Vocal) - Visit
TTITLE7=Carolyn Dawn Johnson (Vocal) - Georgia
TTITLE8=Montgomery Gentry (Vocal) - All Night Long
TTITLE9=Dixie Chicks (Vocal) - Sin Wagon
TTITLE10=Tim Mcgraw - My Next 30 Years
TTITLE11=Billy Ray Cyrus - You Won't Be Lonely Now
TTITLE12=Alan Jackson - Wwwmemory
TTITLE13=Lee Ann Womack - Ashes By Now
TTITLE14=Jo Dee Messina - Burn
TTITLE15=Billy Gilman - Oklahoma
TTITLE16=Chad Brock - Visit
TTITLE17=Carolyn Dawn Johnson - Georgia
TTITLE18=Montgomery Gentry - All Night Long
TTITLE19=Dixie Chicks - Sin Wagon
EXTD=
EXTT0=
EXTT1=
EXTT2=
EXTT3=
EXTT4=
EXTT5=
EXTT6=
EXTT7=
EXTT8=
EXTT9=
EXTT10=
EXTT11=
EXTT12=
EXTT13=
EXTT14=
EXTT15=
EXTT16=
EXTT17=
EXTT18=
EXTT19=
PLAYORDER=
